<svg xmlns="http://www.w3.org/2000/svg" width="58.783" height="58.936" viewBox="0 0 58.783 58.936"><defs><style>.a{fill:#b70569;fill-rule:evenodd;}</style></defs><path class="a" d="M98.331,48.41c.56-2.335,1.054-4.951,1.481-7.94l-.067.007c-2.669.38-5.311.821-7.94,1.448a9.241,9.241,0,0,0,.761,2,9.378,9.378,0,0,0,1.575,2.129,9.087,9.087,0,0,0,2.149,1.581,8.783,8.783,0,0,0,2.041.774M71.349,52.654l-3.99-.167L56.416,63.429,59,66.018c.507-.521,1-1.034,1.468-1.535l.08-.08.094-.094.053-.053.107-.113.027-.027.133-.147h0l.134-.14.186-.2.08-.08.08-.087.054-.06.106-.107.027-.033.12-.133h.014l.12-.14.027-.027.106-.113.054-.053.08-.087.067-.08.053-.06.107-.1.027-.033.12-.134h0l.134-.14.014-.02.106-.114.054-.047.08-.093.067-.067.053-.067.094-.093.027-.04.12-.12.014-.013.12-.134.014-.013.106-.12.027-.04.094-.094.053-.06.067-.067.08-.094.04-.04L64,60.713l.013-.02.12-.127V60.56l.12-.127.026-.027.094-.1.053-.053.054-.073.08-.08.04-.047.094-.107.027-.027.107-.127.12-.127.027-.02.094-.107.04-.047.067-.08.067-.067.053-.053.08-.1.027-.027.106-.12.014-.007.107-.12.013-.02.094-.107.04-.04.08-.08.054-.067.053-.06.08-.08.027-.04.106-.107.013-.013.107-.12v-.013l.107-.107.026-.033.08-.087.054-.053.053-.067.067-.08.04-.04.094-.1.013-.02.107-.12h0l.08-.08.067-.08.08-.08.067-.087.08-.08.013-.027.054-.053.08-.08.067-.08.066-.08.08-.08.04-.053.107-.107.067-.08.067-.08.08-.073.133-.16.08-.08.067-.08.133-.154.027-.02C69.467,54.662,70.414,53.628,71.349,52.654ZM57.083,71.736q5.684,5.695,11.383,11.383l1.561-1.575L58.658,70.168ZM85.427,46.949a7.818,7.818,0,0,1,5.565,13.325l-.027.033a7.829,7.829,0,1,1-5.538-13.358Zm4.79,3.036a6.769,6.769,0,1,0,0,9.575l.027-.02a6.8,6.8,0,0,0-.027-9.555ZM47.155,85.214a.528.528,0,0,1-.747,0,.517.517,0,0,1,0-.747l5.284-5.291a.528.528,0,0,1,.747,0,.54.54,0,0,1,0,.747ZM87.722,72.837l-.174-3.99c-1.027.994-2.135,2-3.323,3.069l-.066.073-.16.14-.08.073c-2.015,1.815-4.043,3.63-6.032,5.478l-.013.013-.121.113-.04.04-.094.087L77.54,78l-.066.06-.094.094c-.974.908-1.935,1.835-2.9,2.756h0l-.294.294,2.576,2.582ZM43.5,89.157a2.537,2.537,0,0,0,.788.154.533.533,0,0,1,.346.12.54.54,0,0,1,.054.747,8.272,8.272,0,0,0-1.428,2.682,1.58,1.58,0,0,0-.04.854.52.52,0,0,0,.44.314,5.83,5.83,0,0,0,2.763-.514,4.11,4.11,0,0,1,2.041-.107,5.657,5.657,0,0,1,1.641.554,2.214,2.214,0,0,1,1.014.954l.027.047a.906.906,0,0,1,.04.46v.013a3.817,3.817,0,0,0-.04.941,1.908,1.908,0,0,0,.213.661l.014.007a.535.535,0,0,1,0,.547,2.918,2.918,0,0,0-.427,1.148.694.694,0,0,0,.12.534c.174.174.547.174.987.027a4.821,4.821,0,0,0,1.788-1.181c.107-.107.2-.213.307-.32l.266-.34a.623.623,0,0,1,.214-.18,8.6,8.6,0,0,0,1.721-.961,11.883,11.883,0,0,0,1.682-1.4.623.623,0,0,1,1-.04,1.7,1.7,0,0,1,.28.447l.014.033c.04.094.094.187.107.22l.133.113.12.08a.525.525,0,0,1,.227.661,1.9,1.9,0,0,0-.187.827.54.54,0,0,0,.134.374c.173.167.533.167.974.02A4.9,4.9,0,0,0,62.595,96.5l.026-.027a7.948,7.948,0,0,0,.574-.661,4.708,4.708,0,0,0,.414-.694.6.6,0,0,1,.2-.207,12.243,12.243,0,0,0,1.081-.774,11.759,11.759,0,0,0,1.027-.927,11.474,11.474,0,0,0,.921-1.014l.027-.027c.187-.247.373-.494.547-.74l-4.657-4.651-3.229,3.229a.527.527,0,0,1-.747,0,.539.539,0,0,1,0-.747l3.229-3.229-5.685-5.7-3.243,3.236a.526.526,0,0,1-.734-.754l3.229-3.229-7.566-7.553-.214.214c-.387.387-.734.781-1.068,1.181a12.369,12.369,0,0,0-.88,1.234.526.526,0,0,1-.174.167,5.688,5.688,0,0,0-1.028.821,4.638,4.638,0,0,0-1.174,1.788c-.147.441-.16.807.027.974a.279.279,0,0,0,.16.1.865.865,0,0,0,.307.027.53.53,0,0,1,.575.441,2.375,2.375,0,0,0,.173.56,1.7,1.7,0,0,0,.307.414c.921.928.747,1.121-.04,1.968a10.078,10.078,0,0,0-1.428,1.882.576.576,0,0,1-.173.187,4.429,4.429,0,0,0-.548.374q-.24.19-.521.46a4.791,4.791,0,0,0-1.174,1.788c-.148.447-.148.807.026.981a.474.474,0,0,0,.214.113h.014a1.261,1.261,0,0,0,.494-.02.522.522,0,0,1,.613.367,3.366,3.366,0,0,0,.174.407,1.894,1.894,0,0,0,.253.32A1.617,1.617,0,0,0,43.5,89.157ZM57.07,79.589l5.685,5.7L65.944,82.1l-5.684-5.7Zm14.412-6.932-3.936-3.943-4.417,4.43,3.937,3.937Zm-3.577-5.084v.013l.014.007L72.6,72.277l.026.02.014.013.214.22,7.179-7.186L74.858,60.16l-7.193,7.186ZM54.668,59.6a.528.528,0,0,1-.747,0,.517.517,0,0,1,0-.747l6.112-6.112-2.828-1.2-6.339,6.332-2.375,7.193,7.152-2.4,6.339-6.339-1.228-2.816ZM81.343,86.289a.527.527,0,0,1-.747,0,.549.549,0,0,1,0-.754l6.1-6.092-2.816-1.221L77.54,84.56l-2.4,7.159,7.193-2.382,6.339-6.332L87.455,80.17Zm8.514-34.242a.526.526,0,1,1-.894.554,4.123,4.123,0,0,0-2-1.681,4.073,4.073,0,0,0-2.6-.153,4.15,4.15,0,0,0-2.936,5.084.531.531,0,0,1-1.027.267,5.2,5.2,0,0,1,9.461-4.07ZM73.724,85.541a.534.534,0,0,1,.747,0,.54.54,0,0,1,0,.747l-2.562,2.562a.526.526,0,0,1-.747-.741Zm-18-18.676a.526.526,0,0,1,.746,0,.515.515,0,0,1,0,.747l-2.562,2.562a.527.527,0,0,1-.747,0,.541.541,0,0,1,0-.747Zm-2.5-.907a.528.528,0,0,1,.747,0,.541.541,0,0,1,0,.747l-3.563,3.563a.527.527,0,0,1-.747,0,.515.515,0,0,1,0-.747Zm5.031,2.322L62.381,72.4l4.417-4.43-.253-.247a.539.539,0,0,1,0-.747l7.94-7.933a.528.528,0,0,1,.747,0l5.925,5.932a.515.515,0,0,1,0,.747L73.23,73.651a.528.528,0,0,1-.747,0l-.253-.247-4.416,4.424,4.11,4.117c3.963-3.95,7.873-7.42,11.956-11.129l.027-.027.094-.08.08-.087.107-.08.053-.06.027-.027.094-.08.094-.08.093-.087.054-.053.026-.027.187-.16.08-.087.066-.047.027-.033.094-.08.174-.16.04-.047.308-.28.04-.04c6.138-5.7,9.955-10.275,12.424-19.763a10.1,10.1,0,0,1-2.255-.861A9.938,9.938,0,0,1,93.394,46.8a9.6,9.6,0,0,1-1.748-2.389,9.859,9.859,0,0,1-.868-2.242c-8.607,2.2-13.144,5.518-18.162,10.689l-.013.013-.067.067-.08.08-.08.08-.08.08-.013.013-.054.067-.16.16-.08.08-.013.013-.066.073-.066.08-.08.08-.08.08-.013.02-.067.067-.08.087-.08.08-.068.087-.013.013-.08.067-.067.087-.08.087-.08.08-.013.013-.067.073-.08.087-.08.087-.08.087-.24.26-.08.087-.24.267-.08.087-.013.013-.16.167-.08.094-.08.087-.014.007L69.68,56l-.094.087-.08.093-.16.18-.08.093-.08.094-.094.093v.007l-.08.087-.08.094-.094.093-.16.187-.094.094-.08.1-.094.093h0l-.08.094-.094.1-.08.094-.094.1-.08.093-.093.1-.094.093-.08.1h0l-.107.12-.014.013-.107.113-.026.027-.08.093-.04.047-.08.08-.04.06-.134.14-.04.053-.08.087-.04.033-.094.107-.014.02-.227.253-.014.013-.106.113-.027.027-.094.107-.027.033-.093.094-.041.053-.08.073-.053.073-.054.06-.08.087-.04.047-.094.1-.027.027-.107.12-.013.013-.12.133h0l-.12.134-.014.013-.107.113-.027.033-.094.1-.04.053-.08.087-.067.06-.054.073-.08.08-.053.053-.08.1-.04.04-.106.107-.014.027-.12.127-.014.007-.12.14-.014.007-.12.133-.012.027-.107.107-.04.047-.093.094-.054.06C62.181,64.23,60.339,66.185,58.257,68.28Z" transform="translate(-41.029 -40.47)"/></svg>