<svg xmlns="http://www.w3.org/2000/svg" width="64.302" height="65.193" viewBox="0 0 64.302 65.193"><defs><style>.a{fill:#b70569;}</style></defs><g transform="translate(-16.74 -13.741)"><g transform="translate(53.123 46.969)"><path class="a" d="M290.236,260.816a2.955,2.955,0,1,0,2.956,2.956A2.941,2.941,0,0,0,290.236,260.816Z" transform="translate(-287.276 -260.816)"/></g><g transform="translate(47.547 31.769)"><path class="a" d="M292.327,265.861a2.957,2.957,0,1,0-2.091.868A2.951,2.951,0,0,0,292.327,265.861Z" transform="translate(-281.701 -245.617)"/><path class="a" d="M279.3,162.434a15.352,15.352,0,0,0-8.1-12.825c-.365-.2-.742-.381-1.126-.548a15.435,15.435,0,0,0-21.528,13.166h-.086v.027c0,.3.076,1.648.076,1.648l-.138.528h1.53a4.564,4.564,0,0,1,4.421-3.191,4.664,4.664,0,0,1,4.621,4.665,4.618,4.618,0,0,1-9.226.274h-1.828c-.039,0-.076.041-.114.036l-1.92,5.372a1.186,1.186,0,0,0,1.079,1.585h1.653l-.012,8.538a3.031,3.031,0,0,0,3.053,3.028H257.2v7.986a2.376,2.376,0,0,0,2.418,2.235h14.045a2.211,2.211,0,0,0,2.231-2.235V176.6a13.5,13.5,0,0,1,1.631-6.293,15.262,15.262,0,0,0,1.772-6.779c0-.123.01-.248.01-.373C279.31,162.911,279.309,162.672,279.3,162.434Z" transform="translate(-245.815 -147.794)"/></g><g transform="translate(16.74 13.741)"><path class="a" d="M196.04,89.73h-4.533a.194.194,0,0,1-.194-.194v-24.9a.36.36,0,0,1,.36-.36h4.2a.36.36,0,0,1,.36.36v24.9A.194.194,0,0,1,196.04,89.73Z" transform="translate(-167.836 -57.478)"/><path class="a" d="M241.711,15.966h-1.375V14.573a.832.832,0,1,0-1.664,0v1.393h-1.393a.832.832,0,0,0,0,1.664h1.393V19a.832.832,0,1,0,1.664,0V17.63h1.375a.832.832,0,1,0,0-1.664Z" transform="translate(-206.9 -13.741)"/><path class="a" d="M58.7,157.008H54.164a.194.194,0,0,1-.194-.194V142.365a.36.36,0,0,1,.36-.36h4.2a.36.36,0,0,1,.36.36v14.449A.194.194,0,0,1,58.7,157.008Z" transform="translate(-48.963 -124.755)"/><path class="a" d="M127.372,123.32H122.84a.194.194,0,0,1-.194-.194V103.442a.36.36,0,0,1,.36-.359h4.2a.36.36,0,0,1,.36.359v19.684A.194.194,0,0,1,127.372,123.32Z" transform="translate(-108.403 -91.068)"/><path class="a" d="M44.805,273.9H43.292a.832.832,0,1,1,0-1.664h1.513a.832.832,0,1,1,0,1.664Zm-5.144,0H38.148a.832.832,0,1,1,0-1.664h1.513a.832.832,0,1,1,0,1.664Zm-5.144,0H33a.832.832,0,1,1,0-1.664h1.513a.832.832,0,1,1,0,1.664Zm-5.144,0H27.86a.832.832,0,1,1,0-1.664h1.513a.832.832,0,1,1,0,1.664Zm-5.144,0H22.716a.832.832,0,1,1,0-1.664h1.513a.832.832,0,1,1,0,1.664Zm-5.144,0H17.572a.832.832,0,1,1,0-1.664h1.513a.832.832,0,1,1,0,1.664Z" transform="translate(-16.74 -237.476)"/></g></g></svg>