<svg xmlns="http://www.w3.org/2000/svg" width="199.328" height="199.328" viewBox="0 0 199.328 199.328"><defs><style>.a{fill:#13a500;}</style></defs><g transform="translate(47.328 25.043)"><path class="a" d="M267.868,66.534a7.51,7.51,0,0,0-10.622-.012l-90.123,89.885-32.516-35.316a7.512,7.512,0,1,0-11.053,10.177l37.812,41.065a7.5,7.5,0,0,0,5.366,2.422c.055,0,.108,0,.16,0a7.52,7.52,0,0,0,5.3-2.191l95.657-95.407A7.511,7.511,0,0,0,267.868,66.534Z" transform="translate(-121.568 -64.327)"/></g><path class="a" d="M191.815,92.151a7.512,7.512,0,0,0-7.512,7.513A84.639,84.639,0,1,1,99.664,15.025,7.512,7.512,0,1,0,99.664,0a99.664,99.664,0,1,0,99.664,99.664A7.512,7.512,0,0,0,191.815,92.151Z"/></svg>