<svg height="480" viewBox="0 0 480 480" width="480" xmlns="http://www.w3.org/2000/svg"><path d="m421.256 26.25c-14.781 14.735-26.602 27.321-26.95 28.692-.341 1.344.374 11.44 1.588 22.437l2.207 19.994-4.477 4.476-4.476 4.477-5.824-5.036c-29.65-25.637-68.72-42.266-109.074-46.424l-11.25-1.159v-9.93c0-9.643-.085-10.016-2.923-12.854-3.93-3.93-8.224-3.93-12.154 0-2.836 2.836-2.923 3.218-2.923 12.79v9.868l-14.25 1.715c-35.491 4.272-67.592 17.058-96.75 38.534-10.866 8.003-34.411 32.045-42.025 42.911-21.193 30.245-33.09 61.334-36.917 96.47-.582 5.34-1.058 10.178-1.058 10.75 0 .65-3.771 1.039-10.077 1.039-9.804 0-10.156.079-13 2.923-3.93 3.93-3.93 8.224 0 12.154 2.844 2.844 3.196 2.923 13 2.923 6.306 0 10.077.389 10.077 1.039 0 .572.476 5.41 1.058 10.75 7.397 67.908 48.827 127.707 109.442 157.966 23.058 11.511 46.408 18.079 73.75 20.746l6.75.658v9.998c0 9.716.082 10.079 2.923 12.92 1.995 1.995 3.925 2.923 6.077 2.923s4.082-.928 6.077-2.923c2.841-2.841 2.923-3.204 2.923-12.92v-9.998l6.75-.658c41.806-4.077 76.488-17.793 108.75-43.008 9.031-7.058 26.757-24.967 33.646-33.993 23.276-30.497 36.86-64.449 40.979-102.424l1.201-11.076h9.914c9.624 0 9.999-.085 12.837-2.923 3.93-3.93 3.93-8.224 0-12.154-2.838-2.838-3.213-2.923-12.837-2.923h-9.914l-1.201-11.076c-4.476-41.27-20.743-79.557-46.415-109.248l-5.036-5.824 4.497-4.497 4.497-4.497 18.186 2.071c27.254 3.104 23.339 4.21 38.571-10.897l13.075-12.968.267-22.282c.147-12.255-.078-21.764-.5-21.132-.534.801-3.195.953-8.766.5l-7.999-.65-1.737-19.5-1.736-19.5-3.031-2.75c-1.974-1.792-4.141-2.75-6.22-2.75-2.838 0-6.103 2.903-29.522 26.25m6.624 19.495-15.607 15.755 1.613 14.676c.888 8.072 1.969 15.027 2.402 15.455.434.429 7.409 1.533 15.5 2.455l14.712 1.677 15.755-15.625c17.982-17.833 17.885-16.367 1.164-17.615-15.643-1.167-16.852-2.408-18.023-18.498-1.169-16.064.237-16.202-17.516 1.72m-426.87 19.89.009 20.865 13.491-13.573c14.988-15.08 15.883-16.929 10.999-22.734-2.02-2.401-3.533-3.077-8-3.577-3.03-.339-7.984-.893-11.009-1.231l-5.5-.615zm234.99 7.004c-1.375.202-5.875.847-10 1.432-18.321 2.602-38.385 9.308-56.892 19.016-52.409 27.49-87.741 78.424-95.67 137.913-2.052 15.399-2.694 14 6.427 14 6.367 0 8.353.383 10.423 2.012 3.401 2.675 4.279 6.992 2.228 10.958-2.049 3.961-4.935 5.03-13.581 5.03-4.957 0-6.935.364-6.935 1.276 0 9.07 4.308 31.453 8.705 45.224 19.698 61.702 72.439 109.297 135.795 122.544 7.214 1.508 24.079 3.908 27.75 3.948.412.004.75-3.113.75-6.927 0-8.646 1.069-11.532 5.03-13.581 3.966-2.051 8.283-1.173 10.958 2.228 1.629 2.07 2.012 4.056 2.012 10.423 0 5.712.349 7.865 1.276 7.865.702 0 5.09-.461 9.75-1.024 62.465-7.551 114.992-44.323 143.062-100.151 9.879-19.648 16.115-41.621 18.468-65.075l.677-6.75h-7.166c-8.799 0-12.477-1.682-14.041-6.421-.929-2.814-.849-4.02.427-6.488 2.204-4.262 4.336-5.091 13.098-5.091h7.682l-.677-6.75c-3.721-37.08-17.005-70.102-39.426-97.999-3.647-4.537-6.861-8.25-7.144-8.25-.283-.001-6.499 5.997-13.814 13.327l-13.301 13.328 3.724 4.422c14.085 16.721 25.344 40.894 30.065 64.548 2.472 12.383 2.495 40.548.043 52.374-11.832 57.072-51.933 99.54-107.203 113.532-72.469 18.345-148.551-24.096-171.318-95.568-5.245-16.465-6.594-25.625-6.55-44.464.031-13.667.476-19.059 2.268-27.5 6.251-29.442 18.787-52.699 39.617-73.498 16.631-16.607 35.717-28.465 56.798-35.289 16.544-5.356 25.212-6.645 44.685-6.645 18.868 0 28.152 1.307 43.374 6.104 15.913 5.014 35.601 15.669 47.548 25.733l4.422 3.724 13.328-13.301c7.33-7.315 13.328-13.531 13.327-13.814 0-.283-3.713-3.497-8.25-7.144-25.746-20.692-56.938-34.065-89.594-38.412-16.503-2.197-15.155-2.741-15.155 6.108 0 4.161-.486 8.474-1.08 9.584-1.699 3.174-7.114 5.027-10.865 3.719-4.344-1.514-6.055-5.42-6.055-13.819v-7.05l-3.25.136c-1.787.075-4.375.302-5.75.503m-.5 56.835c-52.347 8.347-92.974 46.425-104.59 98.026-2.964 13.168-3.227 37.701-.539 50.268 5.301 24.785 15.938 45.218 32.607 62.638 18.515 19.349 40.476 31.503 67.254 37.22 11.504 2.456 36.117 2.437 47.715-.036 32.7-6.975 59.944-24.662 78.924-51.237 25.703-35.989 30.156-84.268 11.539-125.119-3.56-7.812-14.963-25.789-17.911-28.235-1.428-1.185-3.23.256-14.988 11.99l-13.364 13.337 4.004 5.896c10.585 15.588 15.081 30.204 15.156 49.278.097 24.358-7.522 43.525-24.181 60.837-17.368 18.049-38.243 26.967-63.126 26.967-34.922 0-65.613-19.914-80.169-52.016-9.809-21.633-9.588-49.794.563-71.764 8.531-18.466 24.16-34.199 42.695-42.981 12.502-5.923 21.437-7.815 36.911-7.815 10.672 0 15.176.451 21.5 2.152 9.479 2.549 20.124 7.432 28.278 12.969l5.896 4.004 13.337-13.364c11.734-11.758 13.175-13.56 11.99-14.988-2.347-2.828-20.343-14.328-27.561-17.612-22.817-10.382-48.673-14.126-71.94-10.415m6 55.94c-10.018 1.955-17.538 5.055-26.007 10.719-30.811 20.608-40.17 61.225-21.435 93.026 9.692 16.451 25.977 28.372 44.942 32.898 7.799 1.861 24.103 1.618 32-.478 24.659-6.544 44.273-26.117 50.683-50.579 2.272-8.67 2.272-25.33 0-34-1.797-6.858-7.311-18.793-10.627-23l-1.969-2.5-25.838 25.75c-23.269 23.19-26.164 25.75-29.12 25.75-4.504 0-9.129-4.625-9.129-9.129 0-2.956 2.56-5.851 25.75-29.12l25.75-25.838-2.5-1.969c-4.126-3.251-16.099-8.811-22.5-10.449-8.669-2.217-21.761-2.689-30-1.081m-239.738 294.293c1.244.239 3.044.23 4-.02s-.062-.446-2.262-.435-2.982.216-1.738.455m10.988.03c2.888.202 7.613.202 10.5 0 2.888-.202.525-.367-5.25-.367s-8.137.165-5.25.367" fill-rule="evenodd"/></svg>