<?xml version="1.0" encoding="iso-8859-1"?>
<!-- Generator: Adobe Illustrator 19.0.0, SVG Export Plug-In . SVG Version: 6.00 Build 0)  -->
<svg version="1.1" id="Capa_1" xmlns="http://www.w3.org/2000/svg" xmlns:xlink="http://www.w3.org/1999/xlink" x="0px" y="0px"
	 viewBox="0 0 512 512" style="enable-background:new 0 0 512 512;" xml:space="preserve">
<g>
	<g>
		<path d="M383.406,332.775l-68.168-134.414c47.185-6.876,83.541-47.601,83.541-96.662c0-4.15-3.365-7.515-7.515-7.515
			s-7.515,3.365-7.515,7.515c0,43.256-33.405,78.835-75.769,82.352l-2.347-4.627c-0.049-0.097-0.108-0.186-0.16-0.281
			c-4.607-8.8-13.823-14.822-24.425-14.822h-50.098c-10.598,0-19.812,6.018-24.42,14.813c-0.055,0.097-0.115,0.189-0.166,0.29
			l-2.347,4.627c-42.364-3.517-75.769-39.095-75.769-82.352c0-4.15-3.365-7.515-7.515-7.515s-7.515,3.365-7.515,7.515
			c0,49.062,36.356,89.786,83.541,96.662l-68.168,134.414c-7.514,14.813-12.335,30.694-14.332,47.201
			c-0.258,2.134,0.411,4.277,1.837,5.886s3.474,2.53,5.624,2.53h0.904c27.544,4.56,43.202,10.618,57.028,15.967
			c4.675,1.809,9.09,3.517,13.799,5.128c0.807,0.276,1.626,0.407,2.433,0.407c3.124,0,6.042-1.963,7.11-5.084
			c1.344-3.927-0.751-8.199-4.677-9.543c-4.428-1.515-8.709-3.171-13.241-4.925c-13.616-5.267-28.925-11.191-54.795-15.877
			c2.186-12.143,6.115-23.85,11.716-34.893l61.399-121.068v40.759c-9.712,12.012-15.029,26.988-15.029,42.489v50.433
			c0,4.15,3.365,7.515,7.515,7.515h22.544v72.141h-22.544c-4.15,0-7.515,3.365-7.515,7.515v54.701l-9.891,3.297
			c-3.938,1.313-6.065,5.568-4.753,9.505c1.05,3.149,3.982,5.14,7.128,5.14c0.788,0,1.589-0.125,2.378-0.388l14.882-4.961
			c0.019-0.006,30.206-10.069,30.206-10.069c3.068-1.023,5.138-3.895,5.138-7.129v-71.841c6.886,0.558,14.325,0.838,22.544,0.838
			c8.474,0,15.901-0.297,22.544-0.833v71.836c0,3.234,2.07,6.106,5.138,7.129l30.187,10.063c0.019,0.006,14.901,4.967,14.901,4.967
			c0.789,0.263,1.589,0.388,2.378,0.388c3.146,0,6.078-1.992,7.128-5.14c1.313-3.938-0.816-8.193-4.753-9.505l-9.891-3.297v-54.701
			c0-4.15-3.365-7.515-7.515-7.515h-22.544v-16.025c15.847-2.595,26.815-6.831,38.771-11.457
			c13.826-5.349,29.485-11.407,57.029-15.967h0.904c2.15,0,4.197-0.921,5.624-2.53c1.426-1.609,2.095-3.752,1.837-5.886
			C395.741,363.469,390.92,347.588,383.406,332.775z M218.427,484.037l-15.029,5.01v-42.176h15.029V484.037z M293.574,446.871
			h15.029v42.176l-15.029-5.01V446.871z M218.427,191.874c0-6.906,5.618-12.524,12.524-12.524h17.534v37.573
			c0,4.15,3.365,7.515,7.515,7.515s7.515-3.365,7.515-7.515V179.35h17.534c6.906,0,12.524,5.618,12.524,12.524v62.622h-30.059
			v-7.515c0-4.15-3.365-7.515-7.515-7.515s-7.515,3.365-7.515,7.515v7.515h-30.059V191.874z M278.544,402.541
			c-6.544,0.567-13.942,0.881-22.544,0.881c-8.303,0-15.737-0.293-22.544-0.887v-42.833h45.088V402.541z M203.398,344.672v-42.919
			c0-11.71,3.913-23.027,11.061-32.228h83.085c7.147,9.201,11.061,20.518,11.061,32.228v42.919H203.398z M326.922,390.343
			c-10.784,4.172-20.281,7.841-33.348,10.224v-40.866h22.544c4.15,0,7.515-3.365,7.515-7.515v-50.433
			c0-15.501-5.317-30.476-15.029-42.489v-40.758l61.399,121.067c5.602,11.044,9.53,22.75,11.716,34.893
			C355.847,379.151,340.537,385.075,326.922,390.343z"/>
	</g>
</g>
<g>
	<g>
		<path d="M287.5,54.586c5.71-4.595,9.373-11.635,9.373-19.518c0-12.282-8.886-22.528-20.566-24.647
			C271.648,3.979,264.081,0,256.001,0s-15.648,3.979-20.307,10.421c-11.68,2.119-20.566,12.365-20.566,24.647
			c0,7.883,3.664,14.923,9.374,19.518c-12.805,9.604-21.104,24.901-21.104,42.102c0,29.005,23.597,52.603,52.603,52.603
			s52.603-23.597,52.603-52.603C308.603,79.488,300.304,64.19,287.5,54.586z M240.177,25.049c2.9,0,5.54-1.668,6.785-4.285
			c1.683-3.537,5.146-5.734,9.039-5.734s7.355,2.197,9.039,5.734c1.245,2.617,3.886,4.285,6.785,4.285
			c5.525,0,10.02,4.495,10.02,10.02s-4.495,10.02-10.02,10.02h-5.619c-3.303-0.652-6.713-1.002-10.205-1.002
			c-3.492,0-6.901,0.35-10.205,1.002h-5.619c-5.525,0-10.02-4.495-10.02-10.02S234.652,25.049,240.177,25.049z M279.077,67.07
			c-6.755,4.62-14.726,7.112-23.077,7.112c-8.351,0-16.322-2.492-23.077-7.112c4.207-3.285,9.128-5.693,14.489-6.953h17.175
			C269.95,61.377,274.869,63.784,279.077,67.07z M256.001,134.262c-20.718,0-37.573-16.855-37.573-37.573
			c0-6.578,1.704-12.764,4.687-18.147c9.509,6.924,20.91,10.669,32.886,10.669c11.976,0,23.378-3.746,32.886-10.669
			c2.983,5.383,4.687,11.57,4.687,18.147C293.574,117.407,276.719,134.262,256.001,134.262z"/>
	</g>
</g>
<g>
</g>
<g>
</g>
<g>
</g>
<g>
</g>
<g>
</g>
<g>
</g>
<g>
</g>
<g>
</g>
<g>
</g>
<g>
</g>
<g>
</g>
<g>
</g>
<g>
</g>
<g>
</g>
<g>
</g>
</svg>
