<svg id="Layer_1" enable-background="new 0 0 512 512" height="512" viewBox="0 0 512 512" width="512" xmlns="http://www.w3.org/2000/svg"><g><path d="m128.503 376v-95.557l-60.649 142.689c-1.97 4.633-1.483 9.945 1.295 14.144 2.777 4.199 7.476 6.724 12.51 6.724h80.323l-3.391-31.239c-17.14-3.451-30.088-18.621-30.088-36.761z"/><path d="m444.152 423.147-60.653-143.125-.002 95.978c0 18.14-12.948 33.31-30.088 36.761l-3.391 31.239h80.323c5.031 0 9.728-2.522 12.506-6.717s3.268-9.503 1.305-14.136z"/><circle cx="256" cy="67.14" r="67.14"/><path d="m246.062 203.571 9.938 12.878 9.938-12.878-9.938-25.401z"/><path d="m353.497 376 .003-173.5h11.5c37.22 0 67.5-30.28 67.5-67.5v-74c0-20.677-16.822-37.5-37.5-37.5s-37.5 16.823-37.5 37.5v66.468l-25.428.008c-12.716 15.998-30.363 27.907-50.619 33.414l15.516 39.659c1.92 4.906 1.125 10.458-2.094 14.629l-27 34.987c-2.84 3.68-7.227 5.835-11.875 5.835s-9.035-2.155-11.875-5.836l-27-34.987c-3.219-4.17-4.014-9.723-2.094-14.629l15.521-39.671c-11.418-3.105-22.013-8.23-31.357-14.99-4.512 3.261-8.793 6.908-12.77 10.966-18.006 18.377-27.922 42.578-27.922 68.143v151.004c0 4.142 3.357 7.5 7.5 7.5h179.994c4.142 0 7.5-3.358 7.5-7.5z"/><path d="m198.088 498.619c.826 7.613 7.255 13.381 14.912 13.381h86c7.657 0 14.086-5.768 14.912-13.381l9.241-85.119h-134.306z"/></g></svg>